<svg xmlns="http://www.w3.org/2000/svg" viewBox="0 0 32 32" fill="none">
  <style>
    svg { color: #1A1D1B; }
    @media (prefers-color-scheme: dark) { svg { color: #EDEAE1; } }
  </style>
  <path d="M30.93 15.85C30.93 16.33,30.84 16.84,30.67 17.31C30.51 17.78,30.25 18.24,29.94 18.65C29.64 19.06,29.24 19.45,28.83 19.79C28.42 20.12,27.94 20.41,27.46 20.66C26.99 20.91,26.48 21.10,26.00 21.27C25.52 21.44,25.02 21.56,24.58 21.68C24.13 21.80,23.70 21.88,23.32 21.98C22.93 22.08,22.58 22.16,22.28 22.28C21.97 22.40,21.71 22.52,21.47 22.70C21.23 22.87,21.03 23.07,20.84 23.32C20.65 23.57,20.49 23.87,20.31 24.20C20.13 24.53,19.97 24.91,19.77 25.31C19.56 25.70,19.36 26.15,19.10 26.58C18.85 27.00,18.57 27.47,18.24 27.88C17.92 28.30,17.55 28.72,17.15 29.08C16.75 29.44,16.31 29.77,15.85 30.01C15.39 30.26,14.89 30.45,14.40 30.56C13.91 30.66,13.39 30.68,12.91 30.62C12.43 30.56,11.94 30.41,11.50 30.19C11.06 29.97,10.64 29.65,10.28 29.29C9.92 28.93,9.60 28.49,9.33 28.04C9.07 27.58,8.86 27.06,8.70 26.55C8.53 26.04,8.43 25.49,8.35 24.98C8.28 24.47,8.25 23.94,8.23 23.47C8.21 22.99,8.22 22.53,8.21 22.11C8.20 21.70,8.21 21.32,8.18 20.97C8.15 20.63,8.10 20.32,8.01 20.04C7.91 19.75,7.79 19.51,7.61 19.26C7.44 19.01,7.21 18.79,6.95 18.55C6.69 18.30,6.38 18.07,6.05 17.80C5.72 17.53,5.34 17.24,4.98 16.92C4.62 16.59,4.23 16.24,3.88 15.85C3.53 15.46,3.18 15.03,2.90 14.57C2.61 14.12,2.35 13.62,2.18 13.13C2.00 12.63,1.88 12.10,1.84 11.60C1.81 11.10,1.85 10.57,1.97 10.10C2.10 9.63,2.31 9.16,2.58 8.76C2.85 8.35,3.22 7.98,3.62 7.68C4.02 7.37,4.49 7.12,4.98 6.93C5.47 6.74,6.02 6.62,6.54 6.54C7.07 6.47,7.63 6.46,8.16 6.48C8.69 6.50,9.21 6.57,9.70 6.65C10.19 6.72,10.65 6.84,11.08 6.93C11.51 7.02,11.90 7.12,12.26 7.18C12.62 7.24,12.94 7.29,13.25 7.29C13.56 7.28,13.83 7.24,14.12 7.15C14.40 7.06,14.66 6.92,14.95 6.74C15.24 6.56,15.52 6.33,15.85 6.08C16.17 5.84,16.51 5.54,16.89 5.26C17.27 4.98,17.68 4.68,18.12 4.41C18.56 4.15,19.05 3.88,19.54 3.67C20.04 3.47,20.57 3.29,21.09 3.20C21.61 3.10,22.16 3.05,22.67 3.09C23.18 3.13,23.69 3.24,24.15 3.42C24.61 3.61,25.05 3.87,25.41 4.20C25.78 4.52,26.10 4.92,26.34 5.35C26.59 5.79,26.77 6.29,26.88 6.79C26.99 7.30,27.03 7.85,27.02 8.39C27.00 8.92,26.92 9.47,26.80 9.99C26.69 10.51,26.51 11.03,26.34 11.50C26.17 11.98,25.95 12.42,25.77 12.84C25.58 13.25,25.38 13.63,25.23 13.98C25.07 14.34,24.93 14.65,24.84 14.96C24.75 15.27,24.70 15.55,24.70 15.85C24.70 16.14,24.75 16.42,24.84 16.73C24.93 17.04,25.07 17.36,25.23 17.71C25.38 18.07,25.58 18.44,25.77 18.86C25.95 19.27,26.17 19.72,26.34 20.19C26.51 20.67,26.69 21.18,26.80 21.70C26.92 22.22,27.00 22.78,27.02 23.31C27.03 23.84,26.99 24.40,26.88 24.90C26.77 25.41,26.59 25.91,26.34 26.34C26.10 26.77,25.78 27.18,25.41 27.50C25.05 27.82,24.61 28.09,24.15 28.27C23.69 28.46,23.18 28.57,22.67 28.60C22.16 28.64,21.61 28.60,21.09 28.50C20.57 28.40,20.04 28.22,19.54 28.02C19.05 27.82,18.56 27.55,18.12 27.28C17.68 27.02,17.27 26.71,16.89 26.43C16.51 26.15,16.17 25.86,15.85 25.61C15.52 25.37,15.24 25.14,14.95 24.96C14.66 24.78,14.40 24.64,14.12 24.55C13.83 24.46,13.56 24.42,13.25 24.41C12.94 24.40,12.62 24.45,12.26 24.51C11.90 24.57,11.51 24.68,11.08 24.77C10.65 24.86,10.19 24.97,9.70 25.05C9.21 25.12,8.69 25.20,8.16 25.22C7.63 25.23,7.07 25.23,6.54 25.15C6.02 25.08,5.47 24.95,4.98 24.76C4.49 24.58,4.02 24.32,3.62 24.02C3.22 23.72,2.85 23.34,2.58 22.94C2.31 22.54,2.10 22.07,1.97 21.59C1.85 21.12,1.81 20.60,1.84 20.10C1.88 19.59,2.00 19.06,2.18 18.57C2.35 18.07,2.61 17.58,2.90 17.12C3.18 16.67,3.53 16.24,3.88 15.85C4.23 15.46,4.62 15.10,4.98 14.78C5.34 14.45,5.72 14.17,6.05 13.90C6.38 13.63,6.69 13.39,6.95 13.15C7.21 12.91,7.44 12.68,7.61 12.44C7.79 12.19,7.91 11.94,8.01 11.66C8.10 11.37,8.15 11.07,8.18 10.72C8.21 10.38,8.20 10.00,8.21 9.58C8.22 9.17,8.21 8.71,8.23 8.23C8.25 7.75,8.28 7.23,8.35 6.72C8.43 6.20,8.53 5.66,8.70 5.15C8.86 4.64,9.07 4.12,9.33 3.66C9.60 3.20,9.92 2.76,10.28 2.40C10.64 2.04,11.06 1.73,11.50 1.51C11.94 1.29,12.43 1.14,12.91 1.08C13.39 1.01,13.91 1.04,14.40 1.14C14.89 1.24,15.39 1.44,15.85 1.68C16.31 1.93,16.75 2.26,17.15 2.62C17.55 2.97,17.92 3.40,18.24 3.81C18.57 4.23,18.85 4.69,19.10 5.12C19.36 5.55,19.56 5.99,19.77 6.39C19.97 6.79,20.13 7.17,20.31 7.50C20.49 7.83,20.65 8.12,20.84 8.37C21.03 8.62,21.23 8.83,21.47 9.00C21.71 9.17,21.97 9.30,22.28 9.42C22.58 9.54,22.93 9.62,23.32 9.72C23.70 9.82,24.13 9.90,24.58 10.01C25.02 10.13,25.52 10.25,26.00 10.42C26.48 10.59,26.99 10.79,27.46 11.04C27.94 11.28,28.42 11.58,28.83 11.91C29.24 12.24,29.64 12.63,29.94 13.04C30.25 13.46,30.51 13.92,30.67 14.39C30.84 14.86,30.93 15.36,30.93 15.85Z" stroke="currentColor" stroke-width="1.7" stroke-linecap="round" stroke-linejoin="round"/>
</svg>
